<svg width="1024" xmlns="http://www.w3.org/2000/svg" height="1024" id="screenshot-0d651f5a-175b-8039-8008-5b307c043ce7" viewBox="0 0 1024 1024" xmlns:xlink="http://www.w3.org/1999/xlink" fill="none" version="1.1"><g id="shape-0d651f5a-175b-8039-8008-5b307c043ce7"><defs><clipPath id="frame-clip-0d651f5a-175b-8039-8008-5b307c043ce7-render-1" class="frame-clip frame-clip-def"><rect rx="0" ry="0" x="0" y="0" width="1024" height="1024" transform="matrix(1.000000, 0.000000, 0.000000, 1.000000, 0.000000, 0.000000)"/></clipPath></defs><g class="frame-container-wrapper"><g class="frame-container-blur"><g class="frame-container-shadows"><g clip-path="url(#frame-clip-0d651f5a-175b-8039-8008-5b307c043ce7-render-1)" fill="none"><g class="fills" id="fills-0d651f5a-175b-8039-8008-5b307c043ce7"><rect rx="0" ry="0" x="0" y="0" width="1024" height="1024" transform="matrix(1.000000, 0.000000, 0.000000, 1.000000, 0.000000, 0.000000)" class="frame-background"/></g><g class="frame-children"><g id="shape-0d651f5a-175b-8039-8008-5b307c043ce8"><g class="fills" id="fills-0d651f5a-175b-8039-8008-5b307c043ce8"><path d="M448,288C448,270.300048828125,462.2998046875,256,480,256L544,256C561.699951171875,256,576,270.300048828125,576,288L576,352C576,369.7001953125,561.699951171875,384,544,384L480,384C462.2998046875,384,448,369.7001953125,448,352L448,288ZM480,640L544,640C561.699951171875,640,576,654.300048828125,576,672L576,736C576,753.7001953125,561.699951171875,768,544,768L480,768C462.2998046875,768,448,753.7001953125,448,736L448,672C448,654.300048828125,462.2998046875,640,480,640ZM672,640L736,640C753.6998291015625,640,768,654.300048828125,768,672L768,736C768,753.7001953125,753.6998291015625,768,736,768L672,768C654.300048828125,768,640,753.7001953125,640,736L640,672C640,654.300048828125,654.300048828125,640,672,640ZM576,448L640,448C657.699951171875,448,672,462.300048828125,672,480L672,544C672,561.699951171875,657.699951171875,576,640,576L576,576C558.2998046875,576,544,561.699951171875,544,544L544,480C544,462.300048828125,558.2998046875,448,576,448ZM393.39990234375,444.099853515625C405.89990234375,431.599853515625,426.199951171875,431.599853515625,438.699951171875,444.099853515625L484,489.400146484375C496.5,501.900146484375,496.5,522.2001953125,484,534.7001953125L438.699951171875,580C426.199951171875,592.5,405.89990234375,592.5,393.39990234375,580L348.10009765625,534.60009765625C335.60009765625,522.10009765625,335.60009765625,501.800048828125,348.10009765625,489.300048828125L393.39990234375,444ZM288,640L352,640C369.7001953125,640,384,654.300048828125,384,672L384,736C384,753.7001953125,369.7001953125,768,352,768L288,768C270.300048828125,768,256,753.7001953125,256,736L256,672C256,654.300048828125,270.300048828125,640,288,640Z" style="fill: rgb(255, 255, 255); fill-opacity: 1;"/></g><g id="strokes-7f6e2903-622d-803a-8008-5ba4b4b4ca40-0d651f5a-175b-8039-8008-5b307c043ce8" class="strokes"><g class="outer-stroke-shape"><defs><mask id="outer-stroke-render-2-0d651f5a-175b-8039-8008-5b307c043ce8-0" x="-53.01933598375615" y="-53.01933598375615" width="1130.0386719675123" height="1130.0386719675123" maskUnits="userSpaceOnUse"><use href="#stroke-shape-render-2-0d651f5a-175b-8039-8008-5b307c043ce8-0" style="fill: none; stroke: white; stroke-width: 256;"/><use href="#stroke-shape-render-2-0d651f5a-175b-8039-8008-5b307c043ce8-0" style="fill: black; stroke: none;"/></mask><path d="M448,288C448,270.300048828125,462.2998046875,256,480,256L544,256C561.699951171875,256,576,270.300048828125,576,288L576,352C576,369.7001953125,561.699951171875,384,544,384L480,384C462.2998046875,384,448,369.7001953125,448,352L448,288ZM480,640L544,640C561.699951171875,640,576,654.300048828125,576,672L576,736C576,753.7001953125,561.699951171875,768,544,768L480,768C462.2998046875,768,448,753.7001953125,448,736L448,672C448,654.300048828125,462.2998046875,640,480,640ZM672,640L736,640C753.6998291015625,640,768,654.300048828125,768,672L768,736C768,753.7001953125,753.6998291015625,768,736,768L672,768C654.300048828125,768,640,753.7001953125,640,736L640,672C640,654.300048828125,654.300048828125,640,672,640ZM576,448L640,448C657.699951171875,448,672,462.300048828125,672,480L672,544C672,561.699951171875,657.699951171875,576,640,576L576,576C558.2998046875,576,544,561.699951171875,544,544L544,480C544,462.300048828125,558.2998046875,448,576,448ZM393.39990234375,444.099853515625C405.89990234375,431.599853515625,426.199951171875,431.599853515625,438.699951171875,444.099853515625L484,489.400146484375C496.5,501.900146484375,496.5,522.2001953125,484,534.7001953125L438.699951171875,580C426.199951171875,592.5,405.89990234375,592.5,393.39990234375,580L348.10009765625,534.60009765625C335.60009765625,522.10009765625,335.60009765625,501.800048828125,348.10009765625,489.300048828125L393.39990234375,444ZM288,640L352,640C369.7001953125,640,384,654.300048828125,384,672L384,736C384,753.7001953125,369.7001953125,768,352,768L288,768C270.300048828125,768,256,753.7001953125,256,736L256,672C256,654.300048828125,270.300048828125,640,288,640Z" id="stroke-shape-render-2-0d651f5a-175b-8039-8008-5b307c043ce8-0"/></defs><use href="#stroke-shape-render-2-0d651f5a-175b-8039-8008-5b307c043ce8-0" mask="url(#outer-stroke-render-2-0d651f5a-175b-8039-8008-5b307c043ce8-0)" style="fill: none; stroke-width: 256; stroke: rgb(0, 0, 0); stroke-opacity: 1;"/><use href="#stroke-shape-render-2-0d651f5a-175b-8039-8008-5b307c043ce8-0" style="fill: none; stroke-width: 128; stroke: none; stroke-opacity: 1;"/></g></g></g></g></g></g></g></g></g></svg>
