<svg width="1024" xmlns="http://www.w3.org/2000/svg" height="1024" id="screenshot-0d651f5a-175b-8039-8008-5b307c043ce7" viewBox="0 0 1024 1024" xmlns:xlink="http://www.w3.org/1999/xlink" fill="none" version="1.1"><g id="shape-0d651f5a-175b-8039-8008-5b307c043ce7"><defs><clipPath id="frame-clip-0d651f5a-175b-8039-8008-5b307c043ce7-render-1" class="frame-clip frame-clip-def"><rect rx="0" ry="0" x="0" y="0" width="1024" height="1024" transform="matrix(1.000000, 0.000000, 0.000000, 1.000000, 0.000000, 0.000000)"/></clipPath></defs><g class="frame-container-wrapper"><g class="frame-container-blur"><g class="frame-container-shadows"><g clip-path="url(#frame-clip-0d651f5a-175b-8039-8008-5b307c043ce7-render-1)" fill="none"><g class="fills" id="fills-0d651f5a-175b-8039-8008-5b307c043ce7"><rect rx="0" ry="0" x="0" y="0" width="1024" height="1024" transform="matrix(1.000000, 0.000000, 0.000000, 1.000000, 0.000000, 0.000000)" class="frame-background"/></g><g class="frame-children"><g id="shape-0d651f5a-175b-8039-8008-5b307c043ce8"><g class="fills" id="fills-0d651f5a-175b-8039-8008-5b307c043ce8"><path d="M416,176C416,149.4500732421875,437.44970703125,128,464,128L560,128C586.5499267578125,128,608,149.4500732421875,608,176L608,272C608,298.55029296875,586.5499267578125,320,560,320L464,320C437.44970703125,320,416,298.55029296875,416,272L416,176ZM464,704L560,704C586.5499267578125,704,608,725.4500732421875,608,752L608,848C608,874.55029296875,586.5499267578125,896,560,896L464,896C437.44970703125,896,416,874.55029296875,416,848L416,752C416,725.4500732421875,437.44970703125,704,464,704ZM752,704L848,704C874.5498046875,704,896,725.4500732421875,896,752L896,848C896,874.55029296875,874.5498046875,896,848,896L752,896C725.4500732421875,896,704,874.55029296875,704,848L704,752C704,725.4500732421875,725.4500732421875,704,752,704ZM608,416L704,416C730.5499267578125,416,752,437.4500732421875,752,464L752,560C752,586.5499267578125,730.5499267578125,608,704,608L608,608C581.44970703125,608,560,586.5499267578125,560,560L560,464C560,437.4500732421875,581.44970703125,416,608,416ZM334.099853515625,410.1497802734375C352.849853515625,391.3997802734375,383.2999267578125,391.3997802734375,402.0499267578125,410.1497802734375L470,478.1002197265625C488.75,496.8502197265625,488.75,527.30029296875,470,546.05029296875L402.0499267578125,614C383.2999267578125,632.75,352.849853515625,632.75,334.099853515625,614L266.150146484375,545.900146484375C247.400146484375,527.150146484375,247.400146484375,496.7000732421875,266.150146484375,477.9500732421875L334.099853515625,410ZM176,704L272,704C298.55029296875,704,320,725.4500732421875,320,752L320,848C320,874.55029296875,298.55029296875,896,272,896L176,896C149.4500732421875,896,128,874.55029296875,128,848L128,752C128,725.4500732421875,149.4500732421875,704,176,704Z" style="fill: rgb(255, 255, 255); fill-opacity: 1;"/></g><g id="strokes-f1a6c5a6-81fd-8008-8008-5ba6e2384c3d-0d651f5a-175b-8039-8008-5b307c043ce8" class="strokes"><g class="outer-stroke-shape"><defs><mask id="outer-stroke-render-2-0d651f5a-175b-8039-8008-5b307c043ce8-0" x="-181.01933598375615" y="-181.01933598375615" width="1386.0386719675123" height="1386.0386719675123" maskUnits="userSpaceOnUse"><use href="#stroke-shape-render-2-0d651f5a-175b-8039-8008-5b307c043ce8-0" style="fill: none; stroke: white; stroke-width: 256;"/><use href="#stroke-shape-render-2-0d651f5a-175b-8039-8008-5b307c043ce8-0" style="fill: black; stroke: none;"/></mask><path d="M416,176C416,149.4500732421875,437.44970703125,128,464,128L560,128C586.5499267578125,128,608,149.4500732421875,608,176L608,272C608,298.55029296875,586.5499267578125,320,560,320L464,320C437.44970703125,320,416,298.55029296875,416,272L416,176ZM464,704L560,704C586.5499267578125,704,608,725.4500732421875,608,752L608,848C608,874.55029296875,586.5499267578125,896,560,896L464,896C437.44970703125,896,416,874.55029296875,416,848L416,752C416,725.4500732421875,437.44970703125,704,464,704ZM752,704L848,704C874.5498046875,704,896,725.4500732421875,896,752L896,848C896,874.55029296875,874.5498046875,896,848,896L752,896C725.4500732421875,896,704,874.55029296875,704,848L704,752C704,725.4500732421875,725.4500732421875,704,752,704ZM608,416L704,416C730.5499267578125,416,752,437.4500732421875,752,464L752,560C752,586.5499267578125,730.5499267578125,608,704,608L608,608C581.44970703125,608,560,586.5499267578125,560,560L560,464C560,437.4500732421875,581.44970703125,416,608,416ZM334.099853515625,410.1497802734375C352.849853515625,391.3997802734375,383.2999267578125,391.3997802734375,402.0499267578125,410.1497802734375L470,478.1002197265625C488.75,496.8502197265625,488.75,527.30029296875,470,546.05029296875L402.0499267578125,614C383.2999267578125,632.75,352.849853515625,632.75,334.099853515625,614L266.150146484375,545.900146484375C247.400146484375,527.150146484375,247.400146484375,496.7000732421875,266.150146484375,477.9500732421875L334.099853515625,410ZM176,704L272,704C298.55029296875,704,320,725.4500732421875,320,752L320,848C320,874.55029296875,298.55029296875,896,272,896L176,896C149.4500732421875,896,128,874.55029296875,128,848L128,752C128,725.4500732421875,149.4500732421875,704,176,704Z" id="stroke-shape-render-2-0d651f5a-175b-8039-8008-5b307c043ce8-0"/></defs><use href="#stroke-shape-render-2-0d651f5a-175b-8039-8008-5b307c043ce8-0" mask="url(#outer-stroke-render-2-0d651f5a-175b-8039-8008-5b307c043ce8-0)" style="fill: none; stroke-width: 256; stroke: rgb(0, 0, 0); stroke-opacity: 1;"/><use href="#stroke-shape-render-2-0d651f5a-175b-8039-8008-5b307c043ce8-0" style="fill: none; stroke-width: 128; stroke: none; stroke-opacity: 1;"/></g></g></g></g></g></g></g></g></g></svg>